@startuml
[*] --> NoRegistrado : Inicio
NoRegistrado --> Registrando : Inicia Registro
Registrando --> Validando : Ingresa Datos
Validando --> Registrando : Datos Inválidos
Validando --> Registrado : Datos Válidos
Registrado --> Registrando : Modificar Datos
Registrado --> Baja : Dar de Baja
Baja --> NoRegistrado : Confirmación de Baja
Registrado --> [*] : Salir
@enduml
